<mxfile host="app.diagrams.net" agent="Mozilla/5.0 (Windows NT 10.0; Win64; x64) AppleWebKit/537.36 (KHTML, like Gecko) Chrome/130.0.0.0 Safari/537.36 Edg/130.0.0.0" version="24.8.6">
  <diagram id="C5RBs43oDa-KdzZeNtuy" name="Page-1">
    <mxGraphModel dx="1006" dy="926" grid="1" gridSize="10" guides="1" tooltips="1" connect="1" arrows="1" fold="1" page="1" pageScale="1" pageWidth="827" pageHeight="1169" math="0" shadow="0">
      <root>
        <mxCell id="WIyWlLk6GJQsqaUBKTNV-0" />
        <mxCell id="WIyWlLk6GJQsqaUBKTNV-1" parent="WIyWlLk6GJQsqaUBKTNV-0" />
        <mxCell id="uvhdNHRXXou-jYnulpQ3-0" value="" style="edgeStyle=orthogonalEdgeStyle;rounded=0;orthogonalLoop=1;jettySize=auto;html=1;" edge="1" parent="WIyWlLk6GJQsqaUBKTNV-1" source="uvhdNHRXXou-jYnulpQ3-1" target="uvhdNHRXXou-jYnulpQ3-3">
          <mxGeometry relative="1" as="geometry" />
        </mxCell>
        <mxCell id="uvhdNHRXXou-jYnulpQ3-1" value="start" style="ellipse;whiteSpace=wrap;html=1;" vertex="1" parent="WIyWlLk6GJQsqaUBKTNV-1">
          <mxGeometry x="280" y="40" width="120" height="80" as="geometry" />
        </mxCell>
        <mxCell id="uvhdNHRXXou-jYnulpQ3-2" value="" style="edgeStyle=orthogonalEdgeStyle;rounded=0;orthogonalLoop=1;jettySize=auto;html=1;" edge="1" parent="WIyWlLk6GJQsqaUBKTNV-1" source="uvhdNHRXXou-jYnulpQ3-3" target="uvhdNHRXXou-jYnulpQ3-6">
          <mxGeometry relative="1" as="geometry" />
        </mxCell>
        <mxCell id="uvhdNHRXXou-jYnulpQ3-3" value="nhập điểm N" style="shape=parallelogram;perimeter=parallelogramPerimeter;whiteSpace=wrap;html=1;fixedSize=1;" vertex="1" parent="WIyWlLk6GJQsqaUBKTNV-1">
          <mxGeometry x="280" y="170" width="120" height="60" as="geometry" />
        </mxCell>
        <mxCell id="uvhdNHRXXou-jYnulpQ3-4" value="đúng" style="edgeStyle=orthogonalEdgeStyle;rounded=0;orthogonalLoop=1;jettySize=auto;html=1;" edge="1" parent="WIyWlLk6GJQsqaUBKTNV-1" source="uvhdNHRXXou-jYnulpQ3-6" target="uvhdNHRXXou-jYnulpQ3-8">
          <mxGeometry y="10" relative="1" as="geometry">
            <mxPoint as="offset" />
          </mxGeometry>
        </mxCell>
        <mxCell id="uvhdNHRXXou-jYnulpQ3-13" value="sai" style="edgeStyle=orthogonalEdgeStyle;rounded=0;orthogonalLoop=1;jettySize=auto;html=1;" edge="1" parent="WIyWlLk6GJQsqaUBKTNV-1" source="uvhdNHRXXou-jYnulpQ3-6" target="uvhdNHRXXou-jYnulpQ3-12">
          <mxGeometry y="10" relative="1" as="geometry">
            <mxPoint as="offset" />
          </mxGeometry>
        </mxCell>
        <mxCell id="uvhdNHRXXou-jYnulpQ3-6" value="N&amp;lt;4" style="rhombus;whiteSpace=wrap;html=1;" vertex="1" parent="WIyWlLk6GJQsqaUBKTNV-1">
          <mxGeometry x="280" y="300" width="120" height="80" as="geometry" />
        </mxCell>
        <mxCell id="uvhdNHRXXou-jYnulpQ3-28" style="edgeStyle=orthogonalEdgeStyle;rounded=0;orthogonalLoop=1;jettySize=auto;html=1;exitX=1;exitY=0.5;exitDx=0;exitDy=0;entryX=1;entryY=0.5;entryDx=0;entryDy=0;" edge="1" parent="WIyWlLk6GJQsqaUBKTNV-1" source="uvhdNHRXXou-jYnulpQ3-8" target="uvhdNHRXXou-jYnulpQ3-26">
          <mxGeometry relative="1" as="geometry" />
        </mxCell>
        <mxCell id="uvhdNHRXXou-jYnulpQ3-8" value="không đạt" style="whiteSpace=wrap;html=1;" vertex="1" parent="WIyWlLk6GJQsqaUBKTNV-1">
          <mxGeometry x="480" y="310" width="120" height="60" as="geometry" />
        </mxCell>
        <mxCell id="uvhdNHRXXou-jYnulpQ3-15" value="đúng" style="edgeStyle=orthogonalEdgeStyle;rounded=0;orthogonalLoop=1;jettySize=auto;html=1;" edge="1" parent="WIyWlLk6GJQsqaUBKTNV-1" source="uvhdNHRXXou-jYnulpQ3-12" target="uvhdNHRXXou-jYnulpQ3-14">
          <mxGeometry y="10" relative="1" as="geometry">
            <mxPoint as="offset" />
          </mxGeometry>
        </mxCell>
        <mxCell id="uvhdNHRXXou-jYnulpQ3-12" value="4&amp;lt;=N&amp;lt;=6" style="rhombus;whiteSpace=wrap;html=1;" vertex="1" parent="WIyWlLk6GJQsqaUBKTNV-1">
          <mxGeometry x="280" y="440" width="120" height="80" as="geometry" />
        </mxCell>
        <mxCell id="uvhdNHRXXou-jYnulpQ3-29" style="edgeStyle=orthogonalEdgeStyle;rounded=0;orthogonalLoop=1;jettySize=auto;html=1;exitX=1;exitY=0.5;exitDx=0;exitDy=0;entryX=1;entryY=0.5;entryDx=0;entryDy=0;" edge="1" parent="WIyWlLk6GJQsqaUBKTNV-1" source="uvhdNHRXXou-jYnulpQ3-14" target="uvhdNHRXXou-jYnulpQ3-26">
          <mxGeometry relative="1" as="geometry">
            <mxPoint x="710" y="830" as="targetPoint" />
          </mxGeometry>
        </mxCell>
        <mxCell id="uvhdNHRXXou-jYnulpQ3-14" value="trung bình" style="whiteSpace=wrap;html=1;" vertex="1" parent="WIyWlLk6GJQsqaUBKTNV-1">
          <mxGeometry x="480" y="450" width="120" height="60" as="geometry" />
        </mxCell>
        <mxCell id="uvhdNHRXXou-jYnulpQ3-16" value="sai" style="edgeStyle=orthogonalEdgeStyle;rounded=0;orthogonalLoop=1;jettySize=auto;html=1;" edge="1" parent="WIyWlLk6GJQsqaUBKTNV-1" target="uvhdNHRXXou-jYnulpQ3-18">
          <mxGeometry x="0.0077" y="-9" relative="1" as="geometry">
            <mxPoint x="340" y="520" as="sourcePoint" />
            <mxPoint x="9" y="9" as="offset" />
          </mxGeometry>
        </mxCell>
        <mxCell id="uvhdNHRXXou-jYnulpQ3-32" value="đúng" style="edgeStyle=orthogonalEdgeStyle;rounded=0;orthogonalLoop=1;jettySize=auto;html=1;exitX=1;exitY=0.5;exitDx=0;exitDy=0;entryX=0;entryY=0.5;entryDx=0;entryDy=0;" edge="1" parent="WIyWlLk6GJQsqaUBKTNV-1" source="uvhdNHRXXou-jYnulpQ3-18" target="uvhdNHRXXou-jYnulpQ3-19">
          <mxGeometry y="15" relative="1" as="geometry">
            <mxPoint as="offset" />
          </mxGeometry>
        </mxCell>
        <mxCell id="uvhdNHRXXou-jYnulpQ3-18" value="6&amp;lt;N&amp;lt;=8" style="rhombus;whiteSpace=wrap;html=1;" vertex="1" parent="WIyWlLk6GJQsqaUBKTNV-1">
          <mxGeometry x="280" y="585" width="120" height="80" as="geometry" />
        </mxCell>
        <mxCell id="uvhdNHRXXou-jYnulpQ3-30" style="edgeStyle=orthogonalEdgeStyle;rounded=0;orthogonalLoop=1;jettySize=auto;html=1;exitX=1;exitY=0.5;exitDx=0;exitDy=0;entryX=1;entryY=0.5;entryDx=0;entryDy=0;" edge="1" parent="WIyWlLk6GJQsqaUBKTNV-1" source="uvhdNHRXXou-jYnulpQ3-19" target="uvhdNHRXXou-jYnulpQ3-26">
          <mxGeometry relative="1" as="geometry" />
        </mxCell>
        <mxCell id="uvhdNHRXXou-jYnulpQ3-19" value="khá" style="whiteSpace=wrap;html=1;" vertex="1" parent="WIyWlLk6GJQsqaUBKTNV-1">
          <mxGeometry x="480" y="595" width="120" height="60" as="geometry" />
        </mxCell>
        <mxCell id="uvhdNHRXXou-jYnulpQ3-20" value="sai" style="edgeStyle=orthogonalEdgeStyle;rounded=0;orthogonalLoop=1;jettySize=auto;html=1;" edge="1" parent="WIyWlLk6GJQsqaUBKTNV-1" target="uvhdNHRXXou-jYnulpQ3-22">
          <mxGeometry x="0.0067" y="-9" relative="1" as="geometry">
            <mxPoint x="340" y="665" as="sourcePoint" />
            <mxPoint x="9" y="9" as="offset" />
          </mxGeometry>
        </mxCell>
        <mxCell id="uvhdNHRXXou-jYnulpQ3-21" value="đúng" style="edgeStyle=orthogonalEdgeStyle;rounded=0;orthogonalLoop=1;jettySize=auto;html=1;" edge="1" parent="WIyWlLk6GJQsqaUBKTNV-1" source="uvhdNHRXXou-jYnulpQ3-22" target="uvhdNHRXXou-jYnulpQ3-23">
          <mxGeometry y="10" relative="1" as="geometry">
            <mxPoint as="offset" />
          </mxGeometry>
        </mxCell>
        <mxCell id="uvhdNHRXXou-jYnulpQ3-25" value="sai" style="edgeStyle=orthogonalEdgeStyle;rounded=0;orthogonalLoop=1;jettySize=auto;html=1;" edge="1" parent="WIyWlLk6GJQsqaUBKTNV-1" source="uvhdNHRXXou-jYnulpQ3-22" target="uvhdNHRXXou-jYnulpQ3-24">
          <mxGeometry y="10" relative="1" as="geometry">
            <mxPoint as="offset" />
          </mxGeometry>
        </mxCell>
        <mxCell id="uvhdNHRXXou-jYnulpQ3-22" value="8&amp;lt;N&amp;lt;=9" style="rhombus;whiteSpace=wrap;html=1;" vertex="1" parent="WIyWlLk6GJQsqaUBKTNV-1">
          <mxGeometry x="280" y="740" width="120" height="80" as="geometry" />
        </mxCell>
        <mxCell id="uvhdNHRXXou-jYnulpQ3-31" style="edgeStyle=orthogonalEdgeStyle;rounded=0;orthogonalLoop=1;jettySize=auto;html=1;exitX=1;exitY=0.5;exitDx=0;exitDy=0;entryX=1;entryY=0.5;entryDx=0;entryDy=0;" edge="1" parent="WIyWlLk6GJQsqaUBKTNV-1" source="uvhdNHRXXou-jYnulpQ3-23" target="uvhdNHRXXou-jYnulpQ3-26">
          <mxGeometry relative="1" as="geometry" />
        </mxCell>
        <mxCell id="uvhdNHRXXou-jYnulpQ3-23" value="giỏi" style="whiteSpace=wrap;html=1;" vertex="1" parent="WIyWlLk6GJQsqaUBKTNV-1">
          <mxGeometry x="480" y="750" width="120" height="60" as="geometry" />
        </mxCell>
        <mxCell id="uvhdNHRXXou-jYnulpQ3-27" value="" style="edgeStyle=orthogonalEdgeStyle;rounded=0;orthogonalLoop=1;jettySize=auto;html=1;" edge="1" parent="WIyWlLk6GJQsqaUBKTNV-1" source="uvhdNHRXXou-jYnulpQ3-24" target="uvhdNHRXXou-jYnulpQ3-26">
          <mxGeometry relative="1" as="geometry" />
        </mxCell>
        <mxCell id="uvhdNHRXXou-jYnulpQ3-24" value="xuất sắc" style="whiteSpace=wrap;html=1;" vertex="1" parent="WIyWlLk6GJQsqaUBKTNV-1">
          <mxGeometry x="280" y="880" width="120" height="60" as="geometry" />
        </mxCell>
        <mxCell id="uvhdNHRXXou-jYnulpQ3-26" value="end" style="ellipse;whiteSpace=wrap;html=1;" vertex="1" parent="WIyWlLk6GJQsqaUBKTNV-1">
          <mxGeometry x="280" y="1000" width="120" height="80" as="geometry" />
        </mxCell>
      </root>
    </mxGraphModel>
  </diagram>
</mxfile>
